<?xml version="1.0" encoding="utf-8"?>
<!-- Generator: Adobe Illustrator 27.5.0, SVG Export Plug-In . SVG Version: 6.00 Build 0)  -->
<svg version="1.1" xmlns="http://www.w3.org/2000/svg" xmlns:xlink="http://www.w3.org/1999/xlink" x="0px" y="0px"
	 viewBox="0 0 500 500" style="enable-background:new 0 0 500 500;" xml:space="preserve">
<g id="BACKGROUND">
	<rect style="fill:#FFFFFF;" width="500" height="500"/>
	<linearGradient id="SVGID_1_" gradientUnits="userSpaceOnUse" x1="250" y1="71.8478" x2="250" y2="428.1522">
		<stop  offset="0" style="stop-color:#ECEDFE"/>
		<stop  offset="1" style="stop-color:#E8EEFD;stop-opacity:0"/>
	</linearGradient>
	<circle style="fill:url(#SVGID_1_);" cx="250" cy="250" r="178.152"/>
</g>
<g id="OBJECTS">
	<path style="fill:none;stroke:#F1CD96;stroke-miterlimit:10;" d="M427.552,331.686c0,0-6.461,14.698,0.693,24.67
		c9.147,12.751,24.254,37.698,14.275,56.686"/>
	<path style="fill:none;stroke:#661245;stroke-linecap:round;stroke-linejoin:round;stroke-miterlimit:10;" d="M120.993,302.128
		c0,0-12.959,16.036,5.242,24.486"/>
	<ellipse style="fill:#EEB8CB;" cx="263.766" cy="257.339" rx="35.094" ry="44.019"/>
	<path style="fill:#F1CD96;" d="M432.99,367.777c10.489,16.509,18.598,50.488,1.568,57.962c-17.03,7.474-28.772,6.948-39.195,2.338
		l19.808-49.467L432.99,367.777z"/>
	<path style="fill:#E06847;" d="M402.744,421.204c0,0-2.042,16.216,0.739,18.302h-55.255c0,0,2.936-21.255,4.065-26.358
		S402.744,421.204,402.744,421.204z"/>
	<g>
		<path style="fill:#6160EF;" d="M319.799,349.996c-13.841,0.275-35.81-1.04-42.839,3.13c-7.028,4.17-16.734,35.462-16.734,35.462
			s-6.694,23.824-4.518,27.809c2.175,3.985,11.212,11.85,21.252,10.846l-2.51,9.706h65.335l3.554-17.07
			c0,0,19.115-4.487,17.337-28.879c-1.064-14.593,1.124-42.238-10.087-42.406C339.378,348.427,319.799,349.996,319.799,349.996z"/>
		<path style="fill:#F2CCCF;" d="M326,293c-10.514-3.235-23,2-26,18c0,0-8,0-8,2s4,7,4,7s-7,3-7,10s7,16,21,11l9-4c0,0,18-4,19-12
			S339,297,326,293z"/>
		<path style="fill:#F2CCCF;" d="M307,339.33c0,0,1.291,9.673-2.709,10.673c0,0-0.291,11.327,13.709,11.327
			s14.288-12.172,14.288-12.172S326,339.33,332,328.33L307,339.33z"/>
		<path style="fill:#976666;" d="M388.515,401.319l-27.838,6.67l-12.45,7.661c0,0,40.979,9.328,46.705,9.328
			s12.54-8.579,12.54-8.579L388.515,401.319z"/>
		<path style="fill:none;stroke:#661245;stroke-linecap:round;stroke-linejoin:round;stroke-miterlimit:10;" d="M289,326.883
			c0,0,3.228-1.54,7.803,1.447"/>
		
			<ellipse transform="matrix(0.3399 -0.9405 0.9405 0.3399 -93.249 492.206)" style="fill:#262653;" cx="304" cy="312.529" rx="2.423" ry="1.615"/>
		<path style="fill:#262653;" d="M307.282,296.559c0,0-2.302,6.905,7.146,6.266c0,0-2.554,11.651,6.639,14.444l-0.511,14.656
			l4.438-0.17l4.371,7.062c0,0,3.064-3.966,7.789-6.892s11.363-9.946,13.279-19.395c0,0,4.469,1.659,5.873-3.959
			c1.404-5.618-4.852-6.256-4.852-6.256s5.49-5.746,0.894-8.682c-4.596-2.937-5.873,1.915-5.873,1.915s2.937-8.81-1.277-10.087
			s-6.256,3.32-6.256,3.32s1.149-6.129-2.809-7.15c-3.958-1.021-6.256,3.32-6.256,3.32s1.021-5.235-4.596-5.107
			c-5.618,0.128-4.596,5.49-4.596,5.49s-4.341-6.895-10.214-4.086s-0.511,7.022-0.511,7.022s-8.171-3.064-9.576,3.192
			c-1.404,6.256,4.288,8.356,4.288,8.356L307.282,296.559z"/>
		<ellipse style="fill:#F2CCCF;" cx="333.138" cy="328.804" rx="10.203" ry="11"/>
		<rect x="340.458" y="325.498" style="fill:#E06847;" width="5.531" height="1.509"/>
		<circle style="fill:#E06847;" cx="332.288" cy="336.375" r="1.885"/>
		<path style="fill:none;stroke:#262653;stroke-linecap:round;stroke-linejoin:round;stroke-miterlimit:10;" d="M289.887,332.482
			c0,0,0,4.783,2.36,6.77"/>
		<path style="fill:none;stroke:#262653;stroke-linecap:round;stroke-linejoin:round;stroke-miterlimit:10;" d="M292.519,333.744
			c0,0,0,4.783,2.36,6.77"/>
		<path style="fill:none;stroke:#262653;stroke-linecap:round;stroke-linejoin:round;stroke-miterlimit:10;" d="M295.623,334.49
			c0,0,0,4.783,2.36,6.77"/>
		<circle style="fill:#D7BCFC;" cx="311.554" cy="392.766" r="17.855"/>
		<circle style="fill:#6160EF;" cx="311.554" cy="392.766" r="13.838"/>
		<circle style="fill:none;stroke:#D7BCFC;stroke-miterlimit:10;" cx="311.554" cy="392.766" r="21.584"/>
		<polygon style="fill:#F2CCCF;" points="281.021,426.43 285.356,399.513 333.201,397.513 335.047,419.82 		"/>
		<path style="fill:none;stroke:#D2AEBC;stroke-miterlimit:10;" d="M335.047,419.82c0,0-29.726-21.443-49.691-20.307"/>
		<path style="fill:#4948B3;" d="M318,361.33c0,0-12.915-7.948-12.356-12.175c0,0,0.687-1.02,1.375-3.669
			c0,0-3.576-1.44-7.589,0.464c-4.013,1.904-5.192,4.202-5.192,4.202S304.296,367.949,318,361.33z"/>
		<path style="fill:#4948B3;" d="M318,361.33c0,0,9.956-5.332,14.288-12.172l-2.164-5.327c0,0,3.737-1.359,6.266-0.516
			c2.529,0.843,5.893,3.875,5.897,5.386C342.291,350.212,332.029,365.627,318,361.33z"/>
		<path style="fill:none;stroke:#262653;stroke-linecap:round;stroke-linejoin:round;stroke-miterlimit:10;" d="M324.798,365.44
			c0,0-0.239,7.255,1.642,11.61c3.464,8.021,1.123,15.365,1.123,15.365"/>
		<path style="fill:none;stroke:#262653;stroke-linecap:round;stroke-linejoin:round;stroke-miterlimit:10;" d="M306.347,365.406
			c0.95,3.283-2.738,8.018-1.572,11.865s2.266,11.548,0.364,15.177"/>
		<circle style="fill:#4948B3;" cx="328.336" cy="389.505" r="1.635"/>
		<circle style="fill:#4948B3;" cx="306.119" cy="388.796" r="1.635"/>
		<path style="fill:#4948B3;" d="M281.021,426.43l4.335-28.281c0,0-6.179-2.688-9.539,0l-4.71,28.732
			C271.107,426.881,275.186,428.698,281.021,426.43z"/>
		<path style="fill:#4948B3;" d="M333.201,397.513l6.585-1.284c0,0,4.274,20.195,3.554,23.65c-0.719,3.454-8.293,1.307-8.293,1.307
			L333.201,397.513z"/>
	</g>
	<path style="fill:#E06847;" d="M364.98,361.378c4.495-3.48,10.196-8.776,23.825-2.977l18.667-2.851c0,0,18.306-1.885,22.51,3.021
		c4.205,4.905,6.38,22.594-8.699,39.993c-15.079,17.399-13.811,17.834-13.811,17.834l-18.957-15.079l-27.838,6.67L364.98,361.378z"
		/>
	<path style="fill:#CA8687;" d="M201,377c0,0,4-9,9-14s10-8,10-6s-5,10-5,10s19.312-9.844,23-8c2,1,1,15-5,20s-22,12-22,12l-3,5
		C208,396,199,383,201,377z"/>
	<path style="fill:#CA8687;" d="M77.808,377.44c0,0-2.954-9.395-7.356-14.93c-4.401-5.534-9.029-9.082-9.256-7.094
		c-0.227,1.987,3.835,10.502,3.835,10.502s-18.072-11.969-21.945-10.555c-2.1,0.767-2.693,14.79,2.702,20.438
		c5.395,5.648,20.499,14.416,20.499,14.416l2.414,5.308C68.7,395.525,79.115,383.628,77.808,377.44z"/>
	<path style="fill:#976666;" d="M402,301c-8.062,0-17,4-18,17c0,0-6,0-8,1s2,6,2,6s-7,7-5,15s12,12,22,9s20-8,22-13s7-26,0-29
		S408,301,402,301z"/>
	<path style="fill:#A7A4F0;" d="M140,356c-15.965-1.451-17-6-28-6s-17,14-20,25s-7,24-7,24l-7-21c0,0-6,9-19,15c-3,4,16,43,29,44
		c7,1,14-6,14-6l-2,6h57l2-6c0,0,2,8,7,8s29-15,45-40c0,0-9-13-10-22l-20,26c0,0,5-35,3-40s-1.524-17.183-17-13
		C152.899,353.811,151,357,140,356z"/>
	<path style="fill:#7D7BB4;" d="M59,393c0,0,1.73-4.17,4.115-4.684l2.129,1.286C65.244,389.602,61.193,393.07,59,393z"/>
	<path style="fill:#7D7BB4;" d="M211,391c0,0,2.247,7.371,0,8l-2.474-3.876L211,391z"/>
	<path style="fill:#F1CD96;" d="M402.757,301.019c0,0-10.07,26.61,5.382,31.574c0,0-8.53,22.864,1.678,23.703
		s14.747-0.235,14.747-0.235s-3.056-12.34,1.692-19.23c5.46-7.925,8.641-18.033,2.266-23.161
		C423.535,309.658,408.672,300.451,402.757,301.019z"/>
	<path style="fill:#976666;" d="M388.503,349.28c0,0,2.099,9.015-2.099,9.509c0,0,12.323,10.027,21.068-3.239
		c0,0-3.112-7.535-2.275-11.72L388.503,349.28z"/>
	<path style="fill:#976666;" d="M366.179,352.243c0,0-2.122,52.263-6.013,57.835c-3.891,5.571-9.639,5.66-11.938,5.571
		c-2.299-0.088-9.02-3.891-8.401-12.204c0.619-8.313,13.156-48.991,13.156-48.991s5.642-19.543,7.695-21.489S377.149,324.13,378,325
		c3.071,3.141-9.257,16.808-9.257,16.808L373,340l1.755,3.83C374.755,343.83,370.866,348.617,366.179,352.243z"/>
	
		<ellipse transform="matrix(0.3399 -0.9405 0.9405 0.3399 -44.4364 577.0337)" style="fill:#262653;" cx="388.834" cy="320.171" rx="2.423" ry="1.615"/>
	<path style="fill:none;stroke:#262653;stroke-linecap:round;stroke-linejoin:round;stroke-miterlimit:10;" d="M377.541,325.498
		c-0.951,2.461-8.874,6.653-10.233,7.587c-1.359,0.934-3.737,3.822-3.737,5.266"/>
	<path style="fill:none;stroke:#262653;stroke-linecap:round;stroke-linejoin:round;stroke-miterlimit:10;" d="M378,325.995
		c0,0-1.896,4.168-6.021,6.221c-4.125,2.053-4.543,5.299-4.543,5.299"/>
	<path style="fill:none;stroke:#262653;stroke-linecap:round;stroke-linejoin:round;stroke-miterlimit:10;" d="M370.687,336.238
		c0,0,1.154-2.404,2.956-3.328c1.802-0.924,4.208-3.836,4.368-6.423"/>
	<path style="fill:none;stroke:#262653;stroke-linecap:round;stroke-linejoin:round;stroke-miterlimit:10;" d="M373.172,334.425
		c0,0,3.228-1.54,7.803,1.447"/>
	<polygon style="fill:#ED973F;" points="407.472,355.55 405.838,350.579 394.002,357.669 390.423,365.718 396.296,363.522 
		400.092,366.448 	"/>
	<polygon style="fill:#ED973F;" points="388.966,352.424 383.414,353.557 380.529,362.422 384.747,359.431 390.423,365.718 	"/>
	<polygon style="fill:#FFFFFF;" points="389.893,360.882 392.18,361.767 390.423,365.718 	"/>
	<polygon style="fill:#ED973F;" points="388.515,401.319 393.112,395.228 411.04,410.869 407.472,416.398 	"/>
	<polygon style="fill:#ED973F;" points="395.363,392.278 413.409,407.892 418.005,402.356 398.297,386.557 	"/>
	<path style="fill:none;stroke:#DAA87D;stroke-linecap:round;stroke-linejoin:round;stroke-miterlimit:10;" d="M407.472,311.706
		c0,0-1.836,17.864,4.312,24.166c0,0-3.797-9.972,0-17.837"/>
	<ellipse style="fill:#976666;" cx="411.408" cy="334.95" rx="10.203" ry="11"/>
	<circle style="fill:#A7A4F0;" cx="405.39" cy="343.83" r="2.855"/>
	<polygon style="fill:#F4EBFE;" points="155.55,353.7 154.82,362.09 154.48,365.93 153.89,372.69 153.56,376.53 152.97,383.3 
		152.64,387.12 152.03,394.05 151.7,397.89 151.11,404.67 150.77,408.49 150.18,415.28 149.85,419.1 149.25,425.9 148.92,429.72 
		148.34,436.43 148.29,436.95 121.77,436.98 121.73,436.98 110.04,437 110.35,435.57 111.03,432.39 112.6,425.13 113.29,421.93 
		114.85,414.69 115.55,411.46 117.1,404.24 117.8,400.99 119.36,393.8 119.36,393.79 120.06,390.52 121.93,381.84 122.6,378.72 
		122.61,378.72 124.17,371.47 124.85,368.32 126.41,361.09 127.09,357.91 128,353.7 	"/>
	<path style="fill:#661245;" d="M135.603,337.515c-3.603-4.515-24.16-20.097-15.439-34.927C126.097,292.499,146,285,161,288
		s14.864,2.152,14.864,2.152s1.777,3.537-3.223,6.537l3.038,0.368c0,0-0.315,3.156-3.315,5.156L175,303c0,0-4.269,9.127-8.135,9.563
		L135.603,337.515z"/>
	<path style="fill:#CA8687;" d="M144,297c14-6,27-3,26,5s-5,14-5,14s7-1,7,1s-4,7-4,7s9,9,1,17s-25,5-29,1s-6-8-6-8s-8-22,3-32
		L144,297z"/>
	<path style="fill:#661245;" d="M170,297c0,0-13,21-27,22l3.083,10.478L142,332l-4-7l1.071,16.032c0,0-7.071-8.032-9.071-14.032
		s-5-19,6-26S163,288,170,297z"/>
	<ellipse style="fill:#CA8687;" cx="133.114" cy="332.749" rx="10.203" ry="11"/>
	<path style="fill:#262653;" d="M165.806,335.336c-3,2-12,3-14,1c-0.89-0.89,0.13-2.36,2.09-3.73l0.46-0.31c0,0,0.01,0,0.03-0.01
		c2.47-1.59,6.13-2.95,9.42-2.95C166.806,329.336,168.806,333.336,165.806,335.336z"/>
	<path style="fill:#BE4F9E;" d="M165.806,335.336c-3,2-12,3-14,1c-0.89-0.89,0.13-2.36,2.09-3.73l0.46-0.31c0,0,0.01,0,0.03-0.01
		C154.996,332.116,164.836,329.526,165.806,335.336z"/>
	
		<ellipse transform="matrix(0.3399 -0.9405 0.9405 0.3399 -191.3529 360.0497)" style="fill:#262653;" cx="160.806" cy="316.336" rx="2.594" ry="1.729"/>
	<path style="fill:#CA8687;" d="M139,339.696c0,0-3,12-11,14c0,0,14.647,11.747,25.429,0.747L157,343.696L139,339.696z"/>
	<polygon style="fill:#C4DFFB;" points="154.82,362.09 154.48,365.93 126.41,361.09 127.09,357.91 	"/>
	<polygon style="fill:#C4DFFB;" points="153.89,372.69 153.56,376.53 124.17,371.47 124.85,368.32 	"/>
	<polygon style="fill:#C4DFFB;" points="152.97,383.3 152.64,387.12 121.93,381.84 122.6,378.72 122.61,378.72 	"/>
	<polygon style="fill:#C4DFFB;" points="152.03,394.05 151.7,397.89 119.36,393.8 119.36,393.79 120.06,390.52 	"/>
	<polygon style="fill:#C4DFFB;" points="151.11,404.67 150.77,408.49 117.1,404.24 117.8,400.99 	"/>
	<polygon style="fill:#C4DFFB;" points="115.55,411.46 150.18,415.28 149.85,419.1 114.85,414.69 	"/>
	<polygon style="fill:#C4DFFB;" points="149.25,425.9 148.92,429.72 112.6,425.13 113.29,421.93 	"/>
	<polygon style="fill:#C4DFFB;" points="148.34,436.43 148.29,436.95 121.77,436.98 121.73,436.98 110.35,435.57 111.03,432.39 	"/>
	<polygon style="fill:#7D7BB4;" points="128,353.696 120.389,351.171 118.986,395.525 	"/>
	<path style="fill:#7D7BB4;" d="M153.429,354.444L151.752,399l8.329-46.9c0,0-6.543,2.017-6.049,0.531
		C154.525,351.145,153.429,354.444,153.429,354.444z"/>
	<ellipse style="fill:#FFFFFF;" cx="242.28" cy="187.552" rx="74.99" ry="94.062"/>
	<ellipse style="fill:#F2DCEC;" cx="311.554" cy="147.243" rx="35.094" ry="44.019"/>
	<ellipse style="fill:#EADBF5;" cx="165.806" cy="212.788" rx="27.472" ry="44.019"/>
	<g>
		<path style="fill:#BE4F9E;" d="M206.037,147.093c3.849-16.362,21.438-30.678,39.845-27.815s33.982,29.042,11.469,61.765
			s-6.113,51.948-6.113,51.948l-8.947,2.863c0,0-20.75-27.406-3.876-53.584s15.239-38.859,9.921-46.63
			c-5.318-7.772-26.588,4.499-26.997,17.998L206.037,147.093z"/>
		<circle style="fill:#BE4F9E;" cx="253.508" cy="249.155" r="7.038"/>
	</g>
	<g>
		<path style="fill:#D895C5;" d="M292.71,133.172c1.7-7.227,9.469-13.55,17.599-12.285c8.13,1.265,15.009,12.827,5.066,27.28
			c-9.944,14.453-2.7,22.944-2.7,22.944l-3.952,1.265c0,0-9.165-12.105-1.712-23.667c7.453-11.563,6.731-17.163,4.382-20.596
			c-2.349-3.433-11.743,1.987-11.924,7.949L292.71,133.172z"/>
		<circle style="fill:#D895C5;" cx="313.677" cy="178.251" r="3.108"/>
	</g>
	<g>
		<path style="fill:#D5B7EA;" d="M153.417,196.739c1.527-6.49,8.504-12.169,15.805-11.033c7.301,1.136,13.479,11.52,4.549,24.5
			c-8.93,12.98-2.425,20.606-2.425,20.606l-3.549,1.136c0,0-8.231-10.871-1.537-21.255c6.694-10.384,6.045-15.414,3.935-18.497
			s-10.546,1.785-10.709,7.139L153.417,196.739z"/>
		<circle style="fill:#D5B7EA;" cx="172.247" cy="237.223" r="2.792"/>
	</g>
	<path style="fill:#FFFFFF;" d="M203.907,261.63c0,0-5.131,36.401-13.309,44.739c0,0,23.091-24.053,23.572-37.523L203.907,261.63z"
		/>
	<polygon style="fill:#EEB8CB;" points="239.875,287.611 223.676,312.563 245.208,293.832 	"/>
	<path style="fill:#7D7BB4;" d="M97.868,433.888c0,0,5.46-13.447,6.774-25.681c0,0,0.176,15.861-2.642,22.793L97.868,433.888z"/>
	<path style="fill:#7D7BB4;" d="M159,431l3.981-20.67c0,0-1.618,25.681-0.303,27.097C162.677,437.427,160.893,436.646,159,431z"/>
	<path style="fill:#7D7BB4;" d="M85,399l5.445,10.078c0,0-4.473-12.869-3.51-16.585L85,399z"/>
	<polygon style="fill:#7D7BB4;" points="181,403 177.157,408.734 182.112,394.281 	"/>
	
		<line style="fill:none;stroke:#262653;stroke-linecap:round;stroke-linejoin:round;stroke-miterlimit:10;" x1="42.47" y1="358.361" x2="57.927" y2="366.84"/>
	
		<line style="fill:none;stroke:#262653;stroke-linecap:round;stroke-linejoin:round;stroke-miterlimit:10;" x1="41.587" y1="362.424" x2="57.044" y2="370.903"/>
	
		<line style="fill:none;stroke:#262653;stroke-linecap:round;stroke-linejoin:round;stroke-miterlimit:10;" x1="42.735" y1="367.724" x2="55.807" y2="375.408"/>
	<path style="fill:none;stroke:#262653;stroke-linecap:round;stroke-linejoin:round;stroke-miterlimit:10;" d="M63.492,379.471
		c0,0-1.148-6.094,4.328-8.214"/>
	
		<line style="fill:none;stroke:#262653;stroke-linecap:round;stroke-linejoin:round;stroke-miterlimit:10;" x1="238.286" y1="361.982" x2="220.621" y2="369.313"/>
	
		<line style="fill:none;stroke:#262653;stroke-linecap:round;stroke-linejoin:round;stroke-miterlimit:10;" x1="238.728" y1="366.399" x2="221.063" y2="373.73"/>
	
		<line style="fill:none;stroke:#262653;stroke-linecap:round;stroke-linejoin:round;stroke-miterlimit:10;" x1="237.138" y1="372.14" x2="222.741" y2="378.323"/>
	<path style="fill:none;stroke:#262653;stroke-linecap:round;stroke-linejoin:round;stroke-miterlimit:10;" d="M208.786,373.023
		c0,0,8.126,1.766,9.981,9.186"/>
	<path style="fill:#986565;" d="M156.118,345.935c0,0-4.08-0.167-6.578-0.5l5.496,3.914L156.118,345.935z"/>
	<path style="fill:none;stroke:#262653;stroke-linecap:round;stroke-linejoin:round;stroke-miterlimit:10;" d="M135.133,325.95
		c0,0-7.911,0.999-6.329,9.326"/>
	<path style="fill:none;stroke:#262653;stroke-linecap:round;stroke-linejoin:round;stroke-miterlimit:10;" d="M129.554,330.03
		c0,0,5.662-0.167,6.245,4.83"/>
	<path style="fill:none;stroke:#661245;stroke-linecap:round;stroke-linejoin:round;stroke-miterlimit:10;" d="M115.674,295.726
		c0,0,6.543-1.309,8.536,4.817c0,0-1.374-11.285-6.837-12.963"/>
	<path style="fill:none;stroke:#661245;stroke-linecap:round;stroke-linejoin:round;stroke-miterlimit:10;" d="M137.399,291.282
		c0,0,19.091-8.561,32.276-3.853"/>
	<path style="fill:none;stroke:#F1CD96;stroke-miterlimit:10;" d="M402.757,301.019c0,0-14.285,17.964-0.518,28.476"/>
	<polygon style="fill:#F1CD96;" points="400.193,323.076 398.797,332.1 403.262,328.844 403.448,324.937 	"/>
	<path style="fill:none;stroke:#262653;stroke-linecap:round;stroke-linejoin:round;stroke-miterlimit:10;" d="M412.937,328.658
		c0,0,7.628,6.326-1.488,13.581"/>
	<path style="fill:none;stroke:#262653;stroke-linecap:round;stroke-linejoin:round;stroke-miterlimit:10;" d="M406.797,337.03
		c0,0,4.279-3.721,8.93-0.93"/>
</g>
</svg>
